<?xml version="1.0" encoding="UTF-8" standalone="no"?>
<svg
   xmlns:dc="http://purl.org/dc/elements/1.1/"
   xmlns:cc="http://creativecommons.org/ns#"
   xmlns:rdf="http://www.w3.org/1999/02/22-rdf-syntax-ns#"
   xmlns:svg="http://www.w3.org/2000/svg"
   xmlns="http://www.w3.org/2000/svg"
   xmlns:sodipodi="http://sodipodi.sourceforge.net/DTD/sodipodi-0.dtd"
   xmlns:inkscape="http://www.inkscape.org/namespaces/inkscape"
   sodipodi:docname="404.svg"
   inkscape:version="1.0 (4035a4fb49, 2020-05-01)"
   id="svg8"
   version="1.1"
   viewBox="0 0 261.51107 246.34718"
   height="246.34718mm"
   width="261.51108mm">
  <defs
     id="defs2" />
  <sodipodi:namedview
     inkscape:window-maximized="0"
     inkscape:window-y="0"
     inkscape:window-x="0"
     inkscape:window-height="1080"
     inkscape:window-width="1920"
     inkscape:bbox-nodes="true"
     inkscape:snap-bbox="true"
     inkscape:guide-bbox="true"
     showguides="true"
     showgrid="false"
     inkscape:document-rotation="0"
     inkscape:current-layer="layer3"
     inkscape:document-units="mm"
     inkscape:cy="329.60588"
     inkscape:cx="-59.019183"
     inkscape:zoom="0.24748737"
     inkscape:pageshadow="2"
     inkscape:pageopacity="0.0"
     borderopacity="1.0"
     bordercolor="#666666"
     pagecolor="#ffffff"
     id="base" />
  <metadata
     id="metadata5">
    <rdf:RDF>
      <cc:Work
         rdf:about="">
        <dc:format>image/svg+xml</dc:format>
        <dc:type
           rdf:resource="http://purl.org/dc/dcmitype/StillImage" />
        <dc:title></dc:title>
      </cc:Work>
    </rdf:RDF>
  </metadata>
  <g
     transform="translate(-521.75063,-170.75541)"
     style="display:inline"
     inkscape:label="Layer 0"
     id="layer3"
     inkscape:groupmode="layer">
    <path
       inkscape:export-ydpi="96"
       inkscape:export-xdpi="96"
       inkscape:export-filename="/home/rathod-sahaab/404.png"
       sodipodi:nodetypes="ccccc"
       d="m 0,122.64669 h 390 v 390 H 0 Z"
       style="display:inline;fill:#45d1fd;stroke-width:0.265"
       id="rect833" />
    <path
       d="M 1058.6993,71.134183 A 192.32281,192.32281 0 0 0 866.754,263.45681 192.32281,192.32281 0 0 0 1059.0771,455.77942 192.32281,192.32281 0 0 0 1251.3997,263.45681 192.32281,192.32281 0 0 0 1059.0771,71.134183 a 192.32281,192.32281 0 0 0 -0.3778,0 z"
       style="display:inline;fill:#45d1fd;stroke-width:0.264999"
       id="path958" />
  </g>
  <g
     style="display:inline"
     transform="translate(-417.05571,-232.70997)"
     id="layer1"
     inkscape:groupmode="layer"
     inkscape:label="Layer 1">
    <g
       inkscape:export-ydpi="96"
       inkscape:export-xdpi="96"
       inkscape:export-filename="/home/rathod-sahaab/404.png"
       transform="matrix(1.1303045,0,0,1.1303045,-12.145058,28.64266)"
       style="font-style:normal;font-variant:normal;font-weight:bold;font-stretch:normal;font-size:123.79px;line-height:1.25;font-family:'Fugaz One';-inkscape-font-specification:'Fugaz One Bold';fill:#ffffff;fill-opacity:1;stroke:none;stroke-width:0.234081"
       id="text841"
       aria-label="404">
      <path
         id="path853"
         style="font-style:normal;font-variant:normal;font-weight:bold;font-stretch:normal;font-family:'Fugaz One';-inkscape-font-specification:'Fugaz One Bold';fill:#ffffff;fill-opacity:1;stroke-width:0.234081"
         d="M 22.558255,283.64578 H 0.52363515 L 3.2470152,267.92445 H -31.909345 l 5.07539,-28.59549 35.0325702,-42.33618 H 31.718715 l -35.7753099,45.92609 -1.2379,7.17982 H 7.9510352 l 3.0947498,-16.95923 h 20.42535 l -3.09475,16.95923 h 12.25521 l -3.09475,17.82576 h -12.25521 z" />
      <path
         id="path855"
         style="font-style:normal;font-variant:normal;font-weight:bold;font-stretch:normal;font-family:'Fugaz One';-inkscape-font-specification:'Fugaz One Bold';fill:#ffffff;fill-opacity:1;stroke-width:0.234081"
         d="m 94.604,193.65045 q 29.21444,0 29.21444,26.24348 0,4.82781 -0.99032,10.64594 l -2.97096,17.3306 q -3.21854,18.93987 -13.36932,28.22412 -10.02699,9.28425 -27.97654,9.28425 -17.82576,0 -24.63421,-9.16046 -4.58023,-6.31329 -4.58023,-17.08302 0,-5.19918 0.99032,-11.26489 l 2.97096,-17.3306 Q 59.69522,193.65045 94.604,193.65045 Z m -22.77736,61.64742 q 0,10.89352 10.02699,10.89352 6.1895,0 10.02699,-4.08507 3.96128,-4.08507 5.81813,-14.73101 l 2.84717,-16.34028 q 0.74274,-4.08507 0.74274,-7.05603 0,-11.1411 -9.9032,-11.1411 -12.62658,0.24758 -15.84512,18.19713 l -2.97096,16.34028 q -0.74274,4.58023 -0.74274,7.92256 z" />
      <path
         id="path857"
         style="font-style:normal;font-variant:normal;font-weight:bold;font-stretch:normal;font-family:'Fugaz One';-inkscape-font-specification:'Fugaz One Bold';fill:#ffffff;fill-opacity:1;stroke-width:0.234081"
         d="m 181.3807,283.64578 h -22.03462 l 2.72338,-15.72133 H 126.9131 l 5.07539,-28.59549 35.03257,-42.33618 h 23.5201 l -35.77531,45.92609 -1.2379,7.17982 h 13.24553 l 3.09475,-16.95923 h 20.42535 l -3.09475,16.95923 h 12.25521 l -3.09475,17.82576 h -12.25521 z" />
    </g>
    <g
       inkscape:export-ydpi="96"
       inkscape:export-xdpi="96"
       inkscape:export-filename="/home/rathod-sahaab/404.png"
       style="stroke-width:0.889922"
       transform="matrix(1.1236943,0,0,1.1236943,-13.567588,-0.11466889)"
       id="g909">
      <g
         id="g864"
         transform="matrix(0.93305879,0,0,0.93305879,7.5912552,39.148908)"
         style="stroke-width:0.953765">
        <path
           id="path835"
           style="fill:#ffffff;stroke:none;stroke-width:0.88992px;stroke-linecap:butt;stroke-linejoin:miter;stroke-opacity:1"
           d="m 632.81055,614.44727 -71.51172,67.54101 -16.65821,73.86133 -18.68554,-33.92188 -95.66797,170.76954 -7.60742,140.27933 32.66211,42.1953 11.39117,-32.3196 -2.55935,47.5664 19.88107,59.2922 23.66797,20.252 15.04403,-34.7389 5.64933,48.7994 44.11718,49.3653 h 32.19922 l 17.24805,35.3808 41.61714,-33.8101 41.97075,-39.9906 27.21484,-29.8965 11.01953,-51.7657 29.84571,-24.8613 v -67.1484 l 26.0957,-33.38479 16.13281,-52.20899 -1.23633,-43.00585 -70.6582,-125.875 -41.61328,-26.96289 -7.60937,-52.11133 -24.28711,-35.94141 -18.36914,29.62305 z"
           transform="matrix(0.28356555,0,0,0.28356555,-90.321327,55.281893)"
           sodipodi:nodetypes="ccccccccccccccccccccccccccccccc" />
        <path
           sodipodi:nodetypes="ccccc"
           id="path843"
           d="m 89.122199,229.51807 -0.499518,21.74649 14.096969,46.61774 -8.127019,-49.37027 z"
           style="fill:#808080;fill-opacity:0.225624;stroke:none;stroke-width:0.252351px;stroke-linecap:butt;stroke-linejoin:miter;stroke-opacity:1" />
        <path
           id="path845"
           d="m 58.82149,259.99595 1.562124,72.38976 3.736187,-62.77111 z"
           style="fill:#808080;fill-opacity:0.225624;stroke:none;stroke-width:0.252351px;stroke-linecap:butt;stroke-linejoin:miter;stroke-opacity:1"
           sodipodi:nodetypes="cccc" />
        <path
           sodipodi:nodetypes="cccccccccc"
           id="path847"
           d="m 99.801567,240.11196 2.734543,14.66839 2.15443,14.32484 11.09422,6.62816 16.51757,21.68492 8.38015,11.00179 -20.03576,-35.69394 -11.80062,-7.64549 -2.15739,-14.7772 z"
           style="fill:#808080;fill-opacity:0.227451;stroke:none;stroke-width:0.252351px;stroke-linecap:butt;stroke-linejoin:miter;stroke-opacity:1" />
      </g>
      <path
         style="fill:#808080;fill-opacity:0.227451;stroke:none;stroke-width:0.235458px;stroke-linecap:butt;stroke-linejoin:miter;stroke-opacity:1"
         d="m 87.881808,426.42542 4.820902,-35.96528 35.30791,-29.51184 v 17.76635 l -7.89667,6.57788 -2.91559,13.69634 -7.20059,7.91012 -11.104758,10.58084 z"
         id="path881"
         sodipodi:nodetypes="ccccccccc" />
      <path
         style="fill:#808080;fill-opacity:0.227451;stroke:none;stroke-width:0.235458px;stroke-linecap:butt;stroke-linejoin:miter;stroke-opacity:1"
         d="m 57.651096,400.28284 -1.870958,-18.04548 1.750758,-16.57302 4.1006,25.42717 z"
         id="path885" />
      <path
         style="fill:#808080;fill-opacity:0.227451;stroke:none;stroke-width:0.235458px;stroke-linecap:butt;stroke-linejoin:miter;stroke-opacity:0.227451"
         d="m 74.798885,417.06425 9.039948,-74.66607 -0.520571,74.66607 z"
         id="path891"
         sodipodi:nodetypes="cccc" />
    </g>
    <g
       transform="translate(465.26804)"
       id="g986">
      <g
         transform="matrix(1.1303045,0,0,1.1303045,-12.145058,13.82599)"
         style="font-style:normal;font-variant:normal;font-weight:bold;font-stretch:normal;font-size:123.79px;line-height:1.25;font-family:'Fugaz One';-inkscape-font-specification:'Fugaz One Bold';fill:#ffffff;fill-opacity:1;stroke:none;stroke-width:0.234081"
         id="g966"
         aria-label="404">
        <path
           id="path960"
           style="font-style:normal;font-variant:normal;font-weight:bold;font-stretch:normal;font-family:'Fugaz One';-inkscape-font-specification:'Fugaz One Bold';fill:#ffffff;fill-opacity:1;stroke-width:0.234081"
           d="M 22.558255,283.64578 H 0.52363515 L 3.2470152,267.92445 H -31.909345 l 5.07539,-28.59549 35.0325702,-42.33618 H 31.718715 l -35.7753099,45.92609 -1.2379,7.17982 H 7.9510352 l 3.0947498,-16.95923 h 20.42535 l -3.09475,16.95923 h 12.25521 l -3.09475,17.82576 h -12.25521 z" />
        <path
           id="path962"
           style="font-style:normal;font-variant:normal;font-weight:bold;font-stretch:normal;font-family:'Fugaz One';-inkscape-font-specification:'Fugaz One Bold';fill:#ffffff;fill-opacity:1;stroke-width:0.234081"
           d="m 94.604,193.65045 q 29.21444,0 29.21444,26.24348 0,4.82781 -0.99032,10.64594 l -2.97096,17.3306 q -3.21854,18.93987 -13.36932,28.22412 -10.02699,9.28425 -27.97654,9.28425 -17.82576,0 -24.63421,-9.16046 -4.58023,-6.31329 -4.58023,-17.08302 0,-5.19918 0.99032,-11.26489 l 2.97096,-17.3306 Q 59.69522,193.65045 94.604,193.65045 Z m -22.77736,61.64742 q 0,10.89352 10.02699,10.89352 6.1895,0 10.02699,-4.08507 3.96128,-4.08507 5.81813,-14.73101 l 2.84717,-16.34028 q 0.74274,-4.08507 0.74274,-7.05603 0,-11.1411 -9.9032,-11.1411 -12.62658,0.24758 -15.84512,18.19713 l -2.97096,16.34028 q -0.74274,4.58023 -0.74274,7.92256 z" />
        <path
           id="path964"
           style="font-style:normal;font-variant:normal;font-weight:bold;font-stretch:normal;font-family:'Fugaz One';-inkscape-font-specification:'Fugaz One Bold';fill:#ffffff;fill-opacity:1;stroke-width:0.234081"
           d="m 181.3807,283.64578 h -22.03462 l 2.72338,-15.72133 H 126.9131 l 5.07539,-28.59549 35.03257,-42.33618 h 23.5201 l -35.77531,45.92609 -1.2379,7.17982 h 13.24553 l 3.09475,-16.95923 h 20.42535 l -3.09475,16.95923 h 12.25521 l -3.09475,17.82576 h -12.25521 z" />
      </g>
      <g
         style="stroke-width:0.889922"
         transform="matrix(1.1236943,0,0,1.1236943,-13.567588,-0.11466889)"
         id="g984">
        <g
           id="g976"
           transform="matrix(0.93305879,0,0,0.93305879,7.5912552,39.148908)"
           style="stroke-width:0.953765">
          <path
             id="path968"
             style="fill:#ffffff;stroke:none;stroke-width:0.88992px;stroke-linecap:butt;stroke-linejoin:miter;stroke-opacity:1"
             d="m 632.81055,614.44727 -71.51172,67.54101 -16.65821,73.86133 -18.68554,-33.92188 -95.66797,170.76954 -7.60742,140.27933 32.66211,42.1953 11.39117,-32.3196 -2.55935,47.5664 19.88107,59.2922 23.66797,20.252 15.04403,-34.7389 5.64933,48.7994 44.11718,49.3653 h 32.19922 l 17.24805,35.3808 41.61714,-33.8101 41.97075,-39.9906 27.21484,-29.8965 11.01953,-51.7657 29.84571,-24.8613 v -67.1484 l 26.0957,-33.38479 16.13281,-52.20899 -1.23633,-43.00585 -70.6582,-125.875 -41.61328,-26.96289 -7.60937,-52.11133 -24.28711,-35.94141 -18.36914,29.62305 z"
             transform="matrix(0.28356555,0,0,0.28356555,-90.321327,55.281893)"
             sodipodi:nodetypes="ccccccccccccccccccccccccccccccc" />
          <path
             sodipodi:nodetypes="ccccc"
             id="path970"
             d="m 89.122199,229.51807 -0.499518,21.74649 14.096969,46.61774 -8.127019,-49.37027 z"
             style="fill:#808080;fill-opacity:0.225624;stroke:none;stroke-width:0.252351px;stroke-linecap:butt;stroke-linejoin:miter;stroke-opacity:1" />
          <path
             id="path972"
             d="m 58.82149,259.99595 1.562124,72.38976 3.736187,-62.77111 z"
             style="fill:#808080;fill-opacity:0.225624;stroke:none;stroke-width:0.252351px;stroke-linecap:butt;stroke-linejoin:miter;stroke-opacity:1"
             sodipodi:nodetypes="cccc" />
          <path
             sodipodi:nodetypes="cccccccccc"
             id="path974"
             d="m 99.801567,240.11196 2.734543,14.66839 2.15443,14.32484 11.09422,6.62816 16.51757,21.68492 8.38015,11.00179 -20.03576,-35.69394 -11.80062,-7.64549 -2.15739,-14.7772 z"
             style="fill:#808080;fill-opacity:0.227451;stroke:none;stroke-width:0.252351px;stroke-linecap:butt;stroke-linejoin:miter;stroke-opacity:1" />
        </g>
        <path
           style="fill:#808080;fill-opacity:0.227451;stroke:none;stroke-width:0.235458px;stroke-linecap:butt;stroke-linejoin:miter;stroke-opacity:1"
           d="m 87.881808,426.42542 4.820902,-35.96528 35.30791,-29.51184 v 17.76635 l -7.89667,6.57788 -2.91559,13.69634 -7.20059,7.91012 -11.104758,10.58084 z"
           id="path978"
           sodipodi:nodetypes="ccccccccc" />
        <path
           style="fill:#808080;fill-opacity:0.227451;stroke:none;stroke-width:0.235458px;stroke-linecap:butt;stroke-linejoin:miter;stroke-opacity:1"
           d="m 57.651096,400.28284 -1.870958,-18.04548 1.750758,-16.57302 4.1006,25.42717 z"
           id="path980" />
        <path
           style="fill:#808080;fill-opacity:0.227451;stroke:none;stroke-width:0.235458px;stroke-linecap:butt;stroke-linejoin:miter;stroke-opacity:0.227451"
           d="m 74.798885,417.06425 9.039948,-74.66607 -0.520571,74.66607 z"
           id="path982"
           sodipodi:nodetypes="cccc" />
      </g>
    </g>
  </g>
  <g
     transform="translate(-521.75063,-170.75541)"
     inkscape:label="Layer 2"
     id="layer2"
     inkscape:groupmode="layer">
    <path
       inkscape:export-ydpi="96"
       inkscape:export-xdpi="96"
       inkscape:export-filename="/home/rathod-sahaab/404.png"
       sodipodi:nodetypes="ccccc"
       d="M 2.86724e-6,288.86453 H 390 V 512.64669 H 2.86724e-6 Z"
       style="display:inline;fill:#000080;fill-opacity:0.227451;stroke:none;stroke-width:0.264999;stroke-opacity:0.227451"
       id="rect897" />
    <path
       d="M 895.93012,295.72324 A 192.32281,192.32281 0 0 0 1087.8967,476.34632 192.32281,192.32281 0 0 0 1279.8628,295.72324 Z"
       style="display:inline;fill:#000080;fill-opacity:0.22745098;stroke:none;stroke-width:0.264999;stroke-opacity:0.227451"
       id="path988" />
  </g>
</svg>
