<?xml version="1.0" encoding="UTF-8" standalone="no"?>
<svg
   xmlns:dc="http://purl.org/dc/elements/1.1/"
   xmlns:cc="http://creativecommons.org/ns#"
   xmlns:rdf="http://www.w3.org/1999/02/22-rdf-syntax-ns#"
   xmlns:svg="http://www.w3.org/2000/svg"
   xmlns="http://www.w3.org/2000/svg"
   height="64"
   width="64"
   id="svg169"
   version="1.1"
   viewBox="0 0 64 64">
  <metadata
     id="metadata175">
    <rdf:RDF>
      <cc:Work
         rdf:about="">
        <dc:format>image/svg+xml</dc:format>
        <dc:type
           rdf:resource="http://purl.org/dc/dcmitype/StillImage" />
        <dc:title></dc:title>
      </cc:Work>
    </rdf:RDF>
  </metadata>
  <defs
     id="defs173" />
  <g
     style="stroke-width:8"
     transform="matrix(0.125,0,0,0.125,-121.85399,-12.37245)"
     id="g183">
    <path
       style="stroke-width:64"
       fill="#e34f26"
       d="m 1046.3319,558.9796 -41,-460.000002 h 451 l -41,460.000002 -185,52"
       id="path161" />
    <path
       style="stroke-width:64"
       fill="#ef652a"
       d="m 1231.3319,570.9796 149,-41 35,-394 h -184"
       id="path163" />
    <path
       style="stroke-width:64"
       fill="#ebebeb"
       d="m 1231.3319,306.9796 h -75 l -5,-58 h 80 v -56 h -142 l 1,15 14,156 h 127 z m 0,147 h -1 l -63,-17 -4,-45 h -56 l 7,89 116,32 h 1 z"
       id="path165" />
    <path
       style="stroke-width:64"
       fill="#ffffff"
       d="m 1230.3319,306.9796 v 57 h 70 l -7,73 -63,17 v 59 l 116,-32 1,-10 13,-149 2,-15 h -16 z m 0,-114 v 56 h 137 l 1,-12 3,-29 1,-15 z"
       id="path167" />
  </g>
</svg>
