<?xml version="1.0" encoding="UTF-8" standalone="no"?>
<svg
   xmlns:dc="http://purl.org/dc/elements/1.1/"
   xmlns:cc="http://creativecommons.org/ns#"
   xmlns:rdf="http://www.w3.org/1999/02/22-rdf-syntax-ns#"
   xmlns:svg="http://www.w3.org/2000/svg"
   xmlns="http://www.w3.org/2000/svg"
   xmlns:xlink="http://www.w3.org/1999/xlink"
   id="svg971"
   version="1.1"
   height="429"
   width="961.063">
  <metadata
     id="metadata975">
    <rdf:RDF>
      <cc:Work
         rdf:about="">
        <dc:format>image/svg+xml</dc:format>
        <dc:type
           rdf:resource="http://purl.org/dc/dcmitype/StillImage" />
        <dc:title></dc:title>
      </cc:Work>
    </rdf:RDF>
  </metadata>
  <defs
     id="defs961">
    <linearGradient
       gradientTransform="matrix(1 0 0 -1 .14 777.638)"
       gradientUnits="userSpaceOnUse"
       id="a"
       y2="108.459"
       x2="464.315"
       y1="532.267"
       x1="464.315">
      <stop
         id="stop953"
         stop-color="#2a4f84"
         offset=".15" />
      <stop
         id="stop955"
         stop-color="#294e82"
         offset=".388" />
      <stop
         id="stop957"
         stop-color="#172e4e"
         offset="1" />
    </linearGradient>
    <linearGradient
       gradientTransform="matrix(1 0 0 -1 -110.82 852.735)"
       gradientUnits="userSpaceOnUse"
       xlink:href="#a"
       id="b"
       y2="108.459"
       x2="464.315"
       y1="532.267"
       x1="464.315" />
  </defs>
  <path
     d="M 169.13281 2.3867188 L 169.13281 2.625 L 169.10742 36.96875 L 169.10742 279.12305 C 169.10742 298.38105 173.43486 312.47241 181.13086 321.44141 C 188.83586 330.39441 201.85113 334.86328 220.20312 334.86328 C 232.89312 334.86328 247.33344 333.52766 263.52344 330.84766 C 264.33344 328.14366 264.74023 322.35661 264.74023 313.47461 C 264.74023 304.56861 263.11981 295.68567 259.88281 286.76367 L 248.94922 286.76367 C 237.06222 286.76367 232.58594 280.51398 232.58594 267.95898 L 232.58594 37.214844 C 232.58594 23.339844 228.57922 13.597375 223.44922 7.984375 C 218.31922 2.386375 209.41542 2.4433594 196.73242 2.4433594 L 172.04297 2.4433594 L 169.13281 2.3867188 z M 819.85547 2.6074219 L 819.85547 35.367188 C 832.26747 38.062187 837.48475 41.632562 841.96875 46.101562 C 848.86275 52.948562 854.46875 64.946219 854.46875 82.074219 L 854.46875 133.92773 C 854.46875 150.61073 854.55531 163.87317 859.07031 173.70117 C 866.75231 190.24817 881.82172 203.66255 904.26172 213.93555 C 883.94572 222.14955 870.27786 231.65911 863.25586 242.53711 C 856.25786 253.41511 854.77856 268.47631 854.47656 287.69531 L 854.47656 344.23828 C 854.47656 360.76928 848.27469 372.67328 840.17969 379.98828 C 835.71069 384.31428 831.09909 388.12244 819.87109 391.39844 L 819.87109 426.29688 L 832.60938 426.39258 C 854.10138 425.81258 872.93203 419.79472 889.08203 407.63672 C 905.24703 395.46272 912.4043 377.75466 912.4043 354.47266 L 912.4043 284.43555 C 912.4043 265.62955 919.04433 251.245 930.48633 241.25 C 937.42033 235.127 945.54623 230.27627 958.49023 226.69727 L 958.49023 199.60742 C 943.88323 194.68442 935.37566 189.22962 929.34766 183.26562 C 918.65266 172.98463 912.39453 157.24059 912.39453 136.05859 L 912.39453 76.087891 C 912.39453 68.486891 912.02875 60.501531 909.46875 52.144531 C 904.96775 37.681531 897.28747 26.191406 886.48047 17.691406 C 876.55747 9.9394063 865.15597 2.4964219 851.54297 2.6074219 C 842.70097 2.5924219 835.03547 2.7664219 819.85547 2.6074219 z M 125.28711 2.6210938 L 125.28711 2.625 L 125.28711 2.671875 C 120.93711 2.647875 117.00152 2.632625 113.85352 2.640625 C 100.23252 2.521625 88.829063 9.9646094 78.914062 17.724609 C 68.092062 26.224609 58.829734 37.316734 55.927734 52.177734 C 54.273734 60.892734 54.623047 68.509141 54.623047 76.119141 L 54.623047 136.0918 C 54.623047 157.2668 46.743641 173.00178 36.056641 183.30078 C 30.036641 189.26278 17.187266 194.70886 2.5722656 199.63086 L 2.5722656 226.7207 C 15.525266 230.2917 27.993156 235.12663 34.910156 241.26562 C 46.360156 251.26862 54.613281 265.66084 54.613281 284.46484 L 54.613281 354.50195 C 54.613281 377.76895 60.164453 395.49339 76.314453 407.65039 C 92.464453 419.80039 111.28334 425.84364 132.77734 426.43164 L 147.16211 426.33594 L 147.16211 391.41211 C 135.94211 388.12811 129.7098 384.31977 125.2168 380.00977 C 117.1298 372.68577 112.54883 360.79058 112.54883 344.26758 L 112.54883 287.7168 C 112.23883 268.4818 109.13781 253.43678 102.13281 242.55078 C 95.127813 231.68878 81.459141 222.16303 61.119141 213.95703 C 83.567141 203.67703 98.627594 190.26947 106.30859 173.73047 C 110.83359 163.89447 112.55078 150.63022 112.55078 133.94922 L 112.55078 82.095703 C 112.55078 64.967703 116.52511 52.969234 123.41211 46.115234 C 127.14911 42.394234 133.7963 39.333516 143.0293 36.853516 L 157.62891 36.955078 L 157.62891 2.6210938 L 125.28711 2.6210938 z M 561.90039 122.43164 C 537.88639 122.43164 518.79481 132.67336 504.63281 144.56836 C 490.44781 156.48036 483.36328 172.58244 483.36328 192.89844 C 483.36328 220.72144 500.23661 240.75092 533.97461 253.04492 L 556.25586 261.46484 C 568.66786 265.47184 574.89258 271.48444 574.89258 279.52344 C 574.89258 283.80044 572.85855 287.20423 568.81055 289.74023 C 564.77055 292.28523 558.9423 293.54883 551.4043 293.54883 C 535.4773 293.54883 516.71223 287.93366 495.11523 276.72266 C 490.52623 281.52566 486.55169 288.10191 483.17969 296.37891 C 479.79969 304.65591 477.96298 312.28047 477.70898 319.23047 C 501.17398 332.33547 526.69075 340.31836 554.21875 340.31836 C 581.76275 340.31836 602.93802 333.01038 617.79102 321.23438 C 632.62002 309.46637 640.0625 293.55577 640.0625 273.50977 C 640.0625 243.05477 622.12384 221.5298 586.21484 208.9668 L 561.08984 200.11719 C 550.82384 196.37219 545.69531 191.29981 545.69531 184.88281 C 545.69531 181.13681 547.10378 178.0682 549.92578 175.6582 C 552.77378 173.2412 556.86839 172.03906 562.27539 172.03906 C 577.40639 172.03906 596.28256 177.1212 618.97656 187.2832 C 624.11356 183.5372 628.4305 177.19147 631.9375 168.23047 C 635.4275 159.27747 636.93062 151.05641 636.39062 143.56641 C 627.20762 139.03541 615.47706 130.78941 601.16406 127.44141 C 586.88306 124.10141 573.77239 122.43164 561.90039 122.43164 z M 741.24805 122.43164 C 717.23405 122.43164 698.13484 132.67336 683.96484 144.56836 C 669.79484 156.48036 662.71094 172.58244 662.71094 192.89844 C 662.71094 220.72144 679.57664 240.75092 713.30664 253.04492 L 735.60156 261.46484 C 748.01356 265.47184 754.24023 271.48444 754.24023 279.52344 C 754.24023 283.80044 752.21925 287.20423 748.15625 289.74023 C 744.10025 292.28523 738.27419 293.54883 730.74219 293.54883 C 714.80819 293.54883 696.03589 287.93366 674.46289 276.72266 C 669.88989 281.52566 665.89739 288.10191 662.52539 296.37891 C 659.15239 304.65591 657.3165 312.28047 657.0625 319.23047 C 680.5355 332.33547 706.02027 340.31836 733.57227 340.31836 C 761.12427 340.31836 782.29286 333.01038 797.13086 321.23438 C 811.98386 309.46637 819.42578 293.55577 819.42578 273.50977 C 819.42578 243.05477 801.47931 221.5298 765.57031 208.9668 L 740.4375 200.11719 C 730.1715 196.37219 725.05078 191.29981 725.05078 184.88281 C 725.05078 181.13681 726.44244 178.0682 729.27344 175.6582 C 732.13644 173.2412 736.21586 172.03906 741.63086 172.03906 C 756.75486 172.03906 775.63241 177.1212 798.31641 187.2832 C 803.46241 183.5372 807.77016 177.19147 811.28516 168.23047 C 814.77516 159.27747 816.27828 151.05641 815.73828 143.56641 C 806.56228 139.03541 794.81653 130.78941 780.51953 127.44141 C 766.20753 124.10141 753.12805 122.43164 741.24805 122.43164 z M 371.2207 122.48438 C 355.8337 122.48438 342.4035 129.44978 330.9375 134.80078 C 319.4715 140.14478 310.02447 147.49256 302.60547 156.85156 C 295.17047 166.21756 289.63514 177.2395 285.99414 189.9375 C 282.35214 202.6365 280.53125 216.47055 280.53125 231.43555 C 280.53125 246.92555 282.01038 261.25361 284.98438 274.34961 C 287.95038 287.42961 293.01406 298.78583 300.16406 308.42383 C 307.32006 318.04483 316.63247 325.52633 328.10547 330.86133 C 339.58047 336.20533 353.82127 340.30859 370.82227 340.30859 C 402.12727 340.30859 428.57392 331.24458 450.16992 316.01758 C 448.02992 300.52758 442.51248 288.21009 433.64648 279.12109 C 422.61648 283.26309 412.86039 286.22878 404.40039 288.05078 C 395.93239 289.84878 388.46558 290.75586 382.01758 290.75586 C 369.11158 290.75586 359.8245 287.47084 354.1875 280.83984 C 348.5565 274.23184 345.46888 266.41692 344.92188 254.54492 L 450.18555 254.54492 C 453.66255 243.30192 455.41992 228.10587 455.41992 211.79688 C 455.41992 199.50387 453.46473 188.14003 449.55273 177.70703 C 445.64873 167.27503 440.04181 158.32984 432.75781 150.83984 C 425.46581 143.34984 416.63109 137.47331 406.24609 133.19531 C 395.84509 128.92531 384.1737 122.48437 371.2207 122.48438 z M 371.03711 171.29297 C 379.87211 171.29297 386.50497 174.48925 390.91797 180.90625 C 395.33997 187.32325 397.54687 200.25353 397.54688 210.14453 L 397.55664 214.57422 L 344.51953 214.57422 L 344.51953 214.57227 C 345.32153 200.92727 347.81208 186.32936 351.95508 180.31836 C 356.10508 174.29936 362.45811 171.29297 371.03711 171.29297 z "
     style="fill:#45d1fd;fill-opacity:1"
     id="path965" />
</svg>
