<svg xmlns="http://www.w3.org/2000/svg" preserveAspectRatio="xMidYMid" height="31.458" width="111.402"><path fill="#83cd29" d="M102.477 11.163c-.272 0-.535.056-.769.188l-7.386 4.265a1.556 1.556 0 00-.768 1.349v8.515c0 .553.29 1.072.768 1.348l1.93 1.112c.936.462 1.282.455 1.709.455 1.387 0 2.18-.842 2.18-2.306v-8.4c0-.12-.104-.204-.22-.204h-.926c-.118 0-.219.087-.219.204v8.405c0 .648-.676 1.3-1.772.752L95 25.67c-.07-.038-.126-.109-.126-.188v-8.515a.25.25 0 01.126-.204l7.37-4.25c.07-.04.151-.04.22 0l7.37 4.25a.25.25 0 01.126.204v8.515a.236.236 0 01-.11.204l-7.386 4.25a.227.227 0 01-.22 0l-1.897-1.129a.197.197 0 00-.188 0c-.524.297-.622.331-1.113.502-.121.042-.305.107.062.314l2.478 1.46c.236.136.499.204.769.204a1.5 1.5 0 00.768-.204l7.386-4.25a1.56 1.56 0 00.768-1.349V16.97c0-.553-.29-1.072-.768-1.348l-7.386-4.266a1.54 1.54 0 00-.768-.188zm1.976 6.084c-2.104 0-3.356.896-3.356 2.384 0 1.613 1.243 2.058 3.262 2.258 2.414.236 2.603.59 2.603 1.066 0 .825-.658 1.176-2.211 1.176-1.952 0-2.381-.487-2.525-1.46-.017-.104-.097-.188-.204-.188h-.959a.224.224 0 00-.22.22c0 1.242.677 2.712 3.906 2.712 2.337 0 3.685-.915 3.685-2.525 0-1.59-1.09-2.02-3.356-2.32-2.289-.306-2.51-.452-2.51-.989 0-.442.186-1.035 1.883-1.035 1.515 0 2.075.327 2.305 1.349.02.096.104.174.204.174h.959c.058 0 .116-.036.157-.078.04-.045.068-.096.062-.157-.148-1.76-1.321-2.588-3.685-2.588z"/><path fill="#404137" d="M59.055 0a.475.475 0 00-.235.063.475.475 0 00-.235.408v11.996a.318.318 0 01-.157.282.327.327 0 01-.33 0l-1.96-1.129a.94.94 0 00-.94 0l-7.825 4.516a.964.964 0 00-.47.831V26a.94.94 0 00.47.815l7.825 4.516a.937.937 0 00.94 0l7.825-4.516a.94.94 0 00.471-.815V3.482a.956.956 0 00-.486-.831L59.291.047A.461.461 0 0059.055 0zM8.718 11.275a.885.885 0 00-.423.11L.47 15.9a.937.937 0 00-.47.815l.016 12.122c0 .169.087.325.235.408a.456.456 0 00.47 0l4.642-2.666a.957.957 0 00.486-.815v-5.661c0-.338.178-.648.471-.815l1.976-1.145a.926.926 0 01.47-.126.924.924 0 01.47.126l1.976 1.144c.293.168.47.478.47.815v5.66c0 .338.196.644.486.816l4.642 2.666a.472.472 0 00.706-.408l.015-12.121a.933.933 0 00-.47-.815l-7.825-4.516a.879.879 0 00-.423-.11h-.094zm70.315.11a.935.935 0 00-.47.125l-7.825 4.517a.94.94 0 00-.471.815v9.032c0 .34.191.647.486.815l7.762 4.425a.941.941 0 00.925.015l4.705-2.619a.475.475 0 00.25-.408.464.464 0 00-.235-.407l-7.872-4.516a.506.506 0 01-.251-.424v-2.824c0-.169.105-.324.25-.408l2.447-1.411a.47.47 0 01.47 0l2.448 1.411a.469.469 0 01.235.408v2.227a.469.469 0 00.235.407.467.467 0 00.471 0l4.688-2.728a.943.943 0 00.471-.815v-2.18a.942.942 0 00-.47-.815l-7.778-4.516a.933.933 0 00-.47-.126zm-23.396 6.743a.264.264 0 01.125.031l2.682 1.553c.072.042.125.12.125.204v3.104a.241.241 0 01-.125.204l-2.682 1.553a.239.239 0 01-.235 0l-2.682-1.553a.243.243 0 01-.125-.204v-3.105c0-.084.053-.161.125-.204l2.682-1.552a.206.206 0 01.11-.031z"/><path fill="#83cd29" d="M32.225 11.338a.94.94 0 00-.47.125l-7.826 4.5a.964.964 0 00-.47.832v9.032a.937.937 0 00.47.815l7.825 4.516a.937.937 0 00.941 0l7.825-4.516a.94.94 0 00.47-.815v-9.032a.962.962 0 00-.47-.831l-7.825-4.501a.93.93 0 00-.471-.126zm46.793 8.06c-.031 0-.066 0-.094.015l-1.506.878a.183.183 0 00-.094.157v1.725c0 .065.038.124.094.157l1.506.863a.163.163 0 00.172 0l1.505-.863a.184.184 0 00.094-.157v-1.725a.185.185 0 00-.094-.157l-1.505-.878c-.028-.017-.047-.015-.079-.015z"/></svg>