<?xml version="1.0" encoding="UTF-8" standalone="no"?>
<svg
   xmlns:dc="http://purl.org/dc/elements/1.1/"
   xmlns:cc="http://creativecommons.org/ns#"
   xmlns:rdf="http://www.w3.org/1999/02/22-rdf-syntax-ns#"
   xmlns:svg="http://www.w3.org/2000/svg"
   xmlns="http://www.w3.org/2000/svg"
   height="64"
   width="104.03122"
   xml:space="preserve"
   viewBox="0 0 104.03122 64"
   y="0"
   x="0"
   id="Layer_1"
   version="1.1"><metadata
     id="metadata1797"><rdf:RDF><cc:Work
         rdf:about=""><dc:format>image/svg+xml</dc:format><dc:type
           rdf:resource="http://purl.org/dc/dcmitype/StillImage" /><dc:title></dc:title></cc:Work></rdf:RDF></metadata><defs
     id="defs1795" /><style
     id="style1718">.st1{fill:#efcca3}.st3{fill:#ccac8d}.st4{fill:#fff}.st7{fill:#56332b}.st8{fill:#442823}.st9{fill:#7f4a41}.st10{fill:#331712}</style><g
     style="stroke-width:1.23159"
     transform="matrix(0.81195778,0,0,0.81195778,-0.15267602,-21.35449)"
     id="g2396"><path
       style="stroke-width:1.23159"
       class="st1"
       d="m 107.4,50.9 c -0.2,-4.4 0.4,-8.3 -1.6,-11.6 C 101,31.1 89,26.3 65,26.3 V 27 H 64.5 65 v -0.7 c -24,0 -36.6,4.8 -41.4,13.1 -1.9,3.4 -1.7,7.2 -2,11.6 -0.2,3.5 -1.8,7.2 -1.1,11.2 0.8,5.2 1.1,10.4 1.9,15.2 0.6,3.9 6,7.2 6.5,10.9 1.4,10.2 12,14.9 36,14.9 V 104 H 64.3 65 v -0.8 c 24,0 34.2,-4.7 35.5,-14.9 0.5,-3.8 5.5,-7 6.1,-10.9 0.8,-4.8 1.1,-10 1.9,-15.2 0.7,-4 -0.9,-7.8 -1.1,-11.3 z"
       id="path1720" /><path
       style="stroke-width:1.23159"
       class="st3"
       d="m 64.6,54.5 c 4.3,0.1 7.3,2.8 10.1,5.3 3.3,2.9 8.9,4.9 11.2,7.4 2.3,2.5 5.3,5 6.4,8.9 1.1,3.9 1.4,8.9 1.4,10.2 0,1.3 0.7,1 2.7,0 4.7,-2.3 9.9,-8.5 9.9,-8.5 -0.6,3.9 -5.7,7.4 -6.2,11.1 C 98.9,99.1 89,104 64.5,104 H 64.4 65"
       id="path1722" /><path
       style="stroke-width:1.23159"
       class="st3"
       d="m 80.4,46.7 c 0.9,3.1 4.1,13.6 -2.1,10.1 0,0 2.6,1.5 4.2,7.2 1.7,5.7 5.8,6.4 5.8,6.4 0,0 6.7,1.3 11.7,-3 4.2,-3.6 4.9,-10 3.1,-14.9 -1.8,-4.8 -5,-6.3 -9.7,-7.3 -4.7,-1.1 -14.1,-2 -13,1.5 z"
       id="path1724" /><circle
       style="stroke-width:1.23159"
       cx="92.300003"
       cy="58.099998"
       r="8.8000002"
       id="circle1726" /><circle
       style="stroke-width:1.23159"
       class="st4"
       cx="90"
       cy="54.200001"
       r="2.3"
       id="circle1728" /><path
       style="stroke-width:1.23159"
       class="st1"
       d="m 78.9,57.7 c 0,0 7.9,5.4 12.2,10.7 4.3,5.3 4.2,6.3 4.2,6.3 l -3.1,1.4 c 0,0 -4.4,-8.3 -9.8,-11.4 C 76.9,61.6 76.3,59 76.3,59 Z"
       id="path1730" /><path
       style="stroke-width:1.23159"
       class="st3"
       d="m 64.9,54.5 c -4.3,0.1 -7.5,2.8 -10.4,5.3 -3.3,2.9 -9.1,4.9 -11.4,7.4 -2.3,2.5 -5.4,5 -6.5,8.9 -1.1,3.9 -1.5,8.9 -1.5,10.2 0,1.3 0.2,1.4 -2.7,0 -4.7,-2.2 -9.9,-8.5 -9.9,-8.5 0.6,3.9 5.7,7.4 6.2,11.1 C 30.1,99.1 40,104 64.5,104 H 65"
       id="path1732" /><path
       style="stroke-width:1.23159"
       class="st7"
       d="M 88.1,71.4 C 83.3,65.5 75.6,60 64.9,60 h -0.1 c -10.7,0 -18.4,5.5 -23.2,11.4 -5,6.1 -4.6,8.5 -4.6,14.3 0,21 7.4,15 12.3,17.6 5,2.5 10.2,1.7 15.5,1.7 h 0.1 c 5.4,0 10.5,0.7 15.5,-1.8 4.9,-2.5 12.3,3.7 12.3,-17.3 0.1,-5.8 0.4,-8.4 -4.6,-14.5 z"
       id="path1734" /><path
       style="stroke-width:1.23159"
       class="st8"
       d="m 64.4,65.2 c 0,0 -0.7,9.7 -2.1,11.6 l 2.6,-0.6 z"
       id="path1736" /><path
       style="stroke-width:1.23159"
       class="st8"
       d="m 65.1,65.2 c 0,0 0.7,9.7 2.1,11.6 l -2.6,-0.6 z"
       id="path1738" /><path
       style="stroke-width:1.23159"
       class="st7"
       d="m 56.7,62.9 c -1,-2.3 2.6,-6 8.3,-6.1 5.7,0 9.3,3.7 8.3,6.1 -1,2.4 -4.6,3.1 -8.3,3.2 -3.6,-0.1 -7.3,-0.8 -8.3,-3.2 z"
       id="path1740" /><path
       style="stroke-width:1.23159"
       d="m 65,65.2 c 0,-0.4 3.4,-0.5 5.2,-1.7 0,0 -3.7,1.2 -4.5,0.7 -0.8,-0.4 -1,-1.6 -1,-1.6 0,0 -0.3,1.2 -0.9,1.6 -0.7,0.4 -4.9,-0.7 -4.9,-0.7 0,0 5.6,1.4 5.6,1.7 0,0.3 -0.1,1.3 -0.1,2 0,2.5 0,8.7 0.4,9.2 0.6,0.9 0.4,-6.7 0.4,-9.2 -0.1,-0.8 -0.1,-1.6 -0.2,-2 z"
       id="path1742" /><path
       style="stroke-width:1.23159"
       class="st9"
       d="m 65.2,78.6 c 1.7,0 4.7,1.2 7.4,3.1 -2.6,-2.9 -5.7,-4.9 -7.4,-4.9 -1.8,0 -5.6,2.2 -8.3,5.4 2.8,-2.2 6.4,-3.6 8.3,-3.6 z"
       id="path1744" /><path
       style="stroke-width:1.23159"
       class="st8"
       d="M 64.5,96.3 C 60.7,96.3 57,95.1 53.6,94.2 52.9,94 52.2,94.5 51.5,94.3 45.2,92.3 40.1,88.9 37,84.6 v 1 c 0,21 7.4,15.1 12.3,17.6 5,2.5 10.2,1.7 15.5,1.7 h 0.1 c 5.4,0 10.5,0.7 15.5,-1.8 4.9,-2.5 12.3,3.6 12.3,-17.4 0,-0.8 0,-1.6 0.1,-2.3 -2.9,4.7 -8.2,8.4 -14.8,10.6 -0.6,0.2 -2,-0.3 -2.6,-0.2 -3.6,1.2 -6.8,2.5 -10.9,2.5 z"
       id="path1746" /><path
       style="stroke-width:1.23159"
       class="st8"
       d="m 55,85 c 0,0 -2.5,7.5 -0.8,10.8 l -2.3,-1 c 0,0 1.7,-7.6 3.1,-9.8 z m 19.8,0 c 0,0 2.5,7.5 0.8,10.8 l 2.3,-1 c 0,0 -1.8,-7.6 -3.1,-9.8 z"
       id="path1748" /><path
       style="stroke-width:1.23159"
       class="st3"
       d="m 48.6,46.7 c -0.9,3.1 -4.1,13.6 2.1,10.1 0,0 -2.6,1.5 -4.2,7.2 -1.6,5.7 -5.8,6.4 -5.8,6.4 0,0 -6.7,1.3 -11.7,-3 -4.2,-3.6 -4.9,-10 -3.1,-14.9 1.8,-4.9 5,-6.3 9.7,-7.3 4.7,-1.1 14,-2 13,1.5 z"
       id="path1750" /><path
       style="stroke-width:1.23159"
       d="m 64.9,76.8 c 2.7,0 11.1,5.8 11.2,12.9 V 89.3 C 76.1,81.9 69.3,76 64.9,76 60.5,76 53.7,82 53.7,89.3 v 0.4 c 0.1,-7.1 8.5,-12.9 11.2,-12.9 z"
       id="path1752" /><ellipse
       style="stroke-width:1.23159"
       transform="rotate(-14.465,66.712,61.468)"
       class="st10"
       cx="66.699997"
       cy="61.5"
       rx="0.80000001"
       ry="1.5"
       id="ellipse1754" /><ellipse
       style="stroke-width:1.23159"
       transform="rotate(17.235,62.371,61.462)"
       class="st10"
       cx="62.400002"
       cy="61.5"
       rx="0.80000001"
       ry="1.5"
       id="ellipse1756" /><circle
       style="stroke-width:1.23159"
       cx="37.200001"
       cy="58.099998"
       r="8.8000002"
       id="circle1758" /><circle
       style="stroke-width:1.23159"
       class="st4"
       cx="39.5"
       cy="54.200001"
       r="2.3"
       id="circle1760" /><path
       style="stroke-width:1.23159"
       class="st9"
       d="m 67.5,58.2 c 0,-0.1 -2.3,1 -2.9,1.1 -0.6,-0.1 -2.9,-1.2 -2.9,-1.1 z"
       id="path1762" /><path
       style="stroke-width:1.23159"
       class="st1"
       d="m 50,57.7 c 0,0 -7.9,5.4 -12.2,10.7 -4.3,5.3 -4.2,6.3 -4.2,6.3 l 3.1,1.4 c 0,0 4.4,-8.3 9.8,-11.4 5.4,-3.1 6.1,-5.7 6.1,-5.7 z"
       id="path1764" /><path
       style="stroke-width:1.23159"
       class="st3"
       d="m 32.7,41.7 c 0,0 -2.7,7.4 -8.7,10.5 0,0 9.4,-1.1 8.7,-10.5 z m 63.1,0 c 0,0 2.7,7.4 8.7,10.5 0,0 -9.4,-1.1 -8.7,-10.5 z M 78.7,55.5 c 0,0 -5.9,-6.2 -13.8,-6.4 h 0.2 c -8,0.2 -13.8,6.4 -13.8,6.4 6.9,-4.8 12.8,-4.7 13.8,-4.7 -0.1,0 6.7,-0.1 13.6,4.7 z m -6.9,-13 c 0,0 -3,-4.2 -7,-4.3 H 65 c -3,0.1 -6.9,4.3 -6.9,4.3 3.4,-3.3 6.9,-3.2 6.9,-3.2 0,0 3.3,-0.1 6.8,3.2 z M 37.2,73.2 c 0,0 -4.7,2.3 -8.1,0.9 H 29 c -3,-1.7 -4.5,-6.8 -4.5,-6.8 0,0 3,9 12.7,5.9 z m 54.8,0 c 0,0 4.7,2.3 8.1,0.9 4,-1.7 4.6,-6.8 4.6,-6.8 0,0 -3,9 -12.7,5.9 z"
       id="path1766" /><path
       style="stroke-width:1.23159"
       class="st3"
       d="m 42.6,41.2 c 2.6,-0.5 6.9,-0.6 10.3,0.5 4.3,1.5 0.8,7 1.7,7.3 0.9,0.3 2.1,-3.8 10.1,-3.4 8.1,0.4 9,4 10.1,3.4 1.1,-0.6 -1.1,-10 11,-7.8 0,0 -12.7,-3.4 -12.1,5.8 0,0 -7.3,-5.6 -17.5,-0.6 0.1,0 2.7,-8.6 -13.6,-5.2 z m 44.3,0 c 0.2,0 0.3,0.1 0.4,0.1 0.1,0 -0.1,-0.1 -0.4,-0.1 z m 0,0 z M 39.1,28.9 c 0,0 -10.8,13.6 -12.4,18.8 -1.6,5.3 -2.8,27 -4.2,30.1 l -5,-21.4 9.2,-22.3 z m 50.8,0 c 0,0 10.8,13.6 12.4,18.8 1.6,5.3 2.8,27 4.2,30.1 l 5,-21.4 -9.2,-22.3 z"
       id="path1768" /><path
       style="stroke-width:1.23159"
       class="st7"
       d="m 89.4,28.9 c 0,0 11.6,9.7 15,20.9 3.4,11.2 2,24.8 4.6,26.5 3.7,2.4 7.9,-11.9 9.3,-13.4 2.2,-2.4 9.5,-8.5 10,-9.6 0.5,-1.1 -14.8,-17.8 -21.5,-21.1 -8.1,-3.8 -18.1,-4.1 -17.4,-3.3 z"
       id="path1770" /><path
       style="stroke-width:1.23159"
       class="st8"
       d="m 99.3,34.9 c 0,0 13.7,17.5 13.5,39.3 L 118.3,63 c -0.1,0 -4.9,-14.3 -19,-28.1 z"
       id="path1772" /><path
       style="stroke-width:1.23159"
       class="st7"
       d="m 39.1,28.9 c 0,0 -11.6,9.7 -15,20.9 C 20.7,61 22.1,74.6 19.5,76.3 15.8,78.7 11.6,64.4 10.2,62.9 8,60.5 0.7,54.4 0.2,53.3 -0.3,52.2 15,35.5 21.7,32.2 29.8,28.4 39.8,28.1 39.1,28.9 Z"
       id="path1774" /><path
       style="stroke-width:1.23159"
       class="st8"
       d="m 29.2,34.9 c 0,0 -13.7,17.5 -13.5,39.3 L 10.3,63 c 0,0 4.8,-14.3 18.9,-28.1 z"
       id="path1776" /><path
       style="stroke-width:1.23159"
       class="st3"
       d="m 21.8,74.6 c 0,0 1,5.4 2.6,7.1 1.6,1.7 0.5,-1.3 0.5,-1.3 0,0 -1.7,-0.9 -1.4,-7.8 0.3,-6.9 -1.7,2 -1.7,2 z m 85.3,0 c 0,0 -1,5.4 -2.6,7.1 -1.6,1.7 -0.5,-1.3 -0.5,-1.3 0,0 1.7,-0.9 1.4,-7.8 -0.3,-6.9 1.7,2 1.7,2 z"
       id="path1778" /><circle
       style="stroke-width:1.23159"
       class="st8"
       cx="54.5"
       cy="70.5"
       r="0.80000001"
       id="circle1780" /><circle
       style="stroke-width:1.23159"
       class="st8"
       cx="49.900002"
       cy="75.300003"
       r="0.80000001"
       id="circle1782" /><circle
       style="stroke-width:1.23159"
       class="st8"
       cx="48.400002"
       cy="70.5"
       r="0.80000001"
       id="circle1784" /><circle
       style="stroke-width:1.23159"
       class="st8"
       cx="74"
       cy="70.5"
       r="0.80000001"
       id="circle1786" /><circle
       style="stroke-width:1.23159"
       class="st8"
       cx="78.599998"
       cy="75.300003"
       r="0.80000001"
       id="circle1788" /><circle
       style="stroke-width:1.23159"
       class="st8"
       cx="80.099998"
       cy="70.5"
       r="0.80000001"
       id="circle1790" /></g></svg>
