<svg height="64" width="64" xmlns="http://www.w3.org/2000/svg"><clipPath id="a"><path d="M959.4 500L679.8 779.7l279.6 279.7H639.9L360.2 779.7 639.9 500zM639.9 20.7L120.6 540l159.8 159.8 679-679.1H639.9z"/></clipPath><clipPath id="b"><path d="M959.4 500L679.8 779.7l279.6 279.7H639.9L360.2 779.7 639.9 500zM639.9 20.7L120.6 540l159.8 159.8 679-679.1H639.9z"/></clipPath><clipPath id="c"><path d="M959.4 500L679.8 779.7l279.6 279.7H639.9L360.2 779.7 639.9 500zM639.9 20.7L120.6 540l159.8 159.8 679-679.1H639.9z"/></clipPath><clipPath id="d"><path d="M959.4 500L679.8 779.7l279.6 279.7H639.9L360.2 779.7 639.9 500zM639.9 20.7L120.6 540l159.8 159.8 679-679.1H639.9z"/></clipPath><linearGradient id="e" gradientUnits="userSpaceOnUse" x1="566.635" x2="685.65" y1="970.339" y2="851.324"><stop offset="0" stop-color="#1a237e" stop-opacity=".4"/><stop offset="1" stop-color="#1a237e" stop-opacity="0"/></linearGradient><clipPath id="f"><path d="M959.4 500L679.8 779.7l279.6 279.7H639.9L360.2 779.7 639.9 500zM639.9 20.7L120.6 540l159.8 159.8 679-679.1H639.9z"/></clipPath><radialGradient id="g" cx="7824.659" cy="-2855.979" gradientTransform="matrix(.25 0 0 -.25 -1812 -622.5)" gradientUnits="userSpaceOnUse" r="5082.889"><stop offset="0" stop-color="#fff" stop-opacity=".1"/><stop offset="1" stop-color="#fff" stop-opacity="0"/></radialGradient><g clip-path="url(#a)" transform="translate(-1.43 -1.275) scale(.06162)"><path d="M360.3 779.7L520 939.5 959.4 500H639.9z" fill="#39cefd"/></g><path clip-path="url(#b)" d="M639.9 20.7h319.5l-679 679.1L120.6 540z" fill="#39cefd" transform="translate(-1.43 -1.275) scale(.06162)"/><path clip-path="url(#c)" d="M520 939.5l119.9 119.8h319.5L679.8 779.7z" fill="#03569b" transform="translate(-1.43 -1.275) scale(.06162)"/><path clip-path="url(#d)" d="M757 857.4l-77.2-77.7L520 939.5z" fill="url(#e)" transform="translate(-1.43 -1.275) scale(.06162)"/><g clip-path="url(#f)" transform="translate(-1.43 -1.275) scale(.06162)"><path d="M360.282 779.645L520.086 619.84 679.9 779.645 520.086 939.45z" fill="#16b9fd"/></g><path d="M959.4 500L679.8 779.7l279.6 279.7H639.9L360.2 779.7 639.9 500zM639.9 20.7L120.6 540l159.8 159.8 679-679.1H639.9z" fill="url(#g)" transform="translate(-1.43 -1.275) scale(.06162)"/></svg>