<svg xmlns="http://www.w3.org/2000/svg" height="64" width="64"><g stroke-width="8"><path fill="#e34f26" d="M8.937 57.5L3.812 0h56.375l-5.125 57.5L31.937 64"/><path fill="#ef652a" d="M32.062 59l18.625-5.125 4.375-49.25h-23"/><path fill="#ebebeb" d="M32.062 26h-9.375l-.625-7.25h10v-7h-17.75l.125 1.875 1.75 19.5h15.875zm0 18.375h-.125l-7.875-2.125-.5-5.625h-7l.875 11.125 14.5 4h.125z"/><path fill="#fff" d="M31.937 26v7.125h8.75l-.875 9.125-7.875 2.125v7.375l14.5-4 .125-1.25 1.625-18.625.25-1.875h-2zm0-14.25v7h17.125l.125-1.5.375-3.625.125-1.875z"/></g></svg>