<svg xmlns="http://www.w3.org/2000/svg" height="429" width="961.063"><path d="M169.133 2.387v.238l-.026 34.344v242.154c0 19.258 4.328 33.35 12.024 42.318 7.705 8.953 20.72 13.422 39.072 13.422 12.69 0 27.13-1.335 43.32-4.015.81-2.704 1.217-8.491 1.217-17.373 0-8.906-1.62-17.79-4.857-26.711h-10.934c-11.887 0-16.363-6.25-16.363-18.805V37.215c0-13.875-4.007-23.618-9.137-29.23-5.13-5.599-14.034-5.542-26.717-5.542h-24.689l-2.91-.056zm650.722.22v32.76c12.412 2.695 17.63 6.266 22.114 10.735 6.894 6.847 12.5 18.844 12.5 35.972v51.854c0 16.683.086 29.945 4.601 39.773 7.682 16.547 22.752 29.962 45.192 40.235-20.316 8.214-33.984 17.723-41.006 28.601-6.998 10.878-8.477 25.94-8.78 45.158v56.543c0 16.531-6.201 28.435-14.296 35.75-4.47 4.326-9.08 8.134-20.309 11.41v34.899l12.738.096c21.492-.58 40.323-6.598 56.473-18.756 16.165-12.174 23.322-29.882 23.322-53.164v-70.037c0-18.806 6.64-33.191 18.082-43.186 6.934-6.123 15.06-10.974 28.004-14.553v-27.09c-14.607-4.923-23.114-10.377-29.142-16.341-10.695-10.281-16.953-26.025-16.953-47.207V76.088c0-7.601-.366-15.586-2.926-23.943-4.501-14.463-12.182-25.954-22.989-34.454-9.923-7.752-21.324-15.195-34.937-15.084-8.842-.015-16.508.16-31.688 0zm-694.568.014v.051c-4.35-.024-8.285-.04-11.433-.031-13.621-.12-25.025 7.324-34.94 15.084-10.822 8.5-20.084 19.592-22.986 34.453-1.654 8.715-1.305 16.331-1.305 23.941v59.973c0 21.175-7.88 36.91-18.566 47.209-6.02 5.962-18.87 11.408-33.485 16.33v27.09c12.953 3.57 25.421 8.406 32.338 14.545 11.45 10.003 19.703 24.395 19.703 43.199v70.037c0 23.267 5.551 40.991 21.701 53.148 16.15 12.15 34.97 18.194 56.463 18.782l14.385-.096v-34.924c-11.22-3.284-17.452-7.092-21.945-11.402-8.087-7.324-12.668-19.22-12.668-35.742v-56.551c-.31-19.235-3.411-34.28-10.416-45.166-7.005-10.862-20.674-20.388-41.014-28.594 22.448-10.28 37.509-23.688 45.19-40.227 4.525-9.836 6.242-23.1 6.242-39.78V82.095c0-17.128 3.974-29.127 10.861-35.98 3.737-3.722 10.384-6.782 19.617-9.262l14.6.101V2.621h-32.342zM561.9 122.431c-24.014 0-43.105 10.242-57.267 22.137-14.185 11.912-21.27 28.014-21.27 48.33 0 27.823 16.874 47.853 50.612 60.147l22.28 8.42c12.413 4.007 18.638 10.02 18.638 18.058 0 4.277-2.034 7.681-6.082 10.217-4.04 2.545-9.869 3.809-17.407 3.809-15.927 0-34.692-5.615-56.289-16.826-4.589 4.803-8.563 11.379-11.935 19.656-3.38 8.277-5.217 15.901-5.471 22.851 23.465 13.105 48.982 21.088 76.51 21.088 27.544 0 48.719-7.308 63.572-19.084 14.829-11.768 22.271-27.678 22.271-47.724 0-30.455-17.938-51.98-53.847-64.543l-25.125-8.85c-10.266-3.745-15.395-8.817-15.395-15.234 0-3.746 1.409-6.815 4.23-9.225 2.849-2.417 6.943-3.619 12.35-3.619 15.131 0 34.008 5.082 56.702 15.244 5.137-3.746 9.454-10.092 12.96-19.053 3.49-8.953 4.994-17.174 4.454-24.664-9.183-4.53-20.914-12.777-35.227-16.125-14.28-3.34-27.392-5.01-39.264-5.01zm179.348 0c-24.014 0-43.113 10.242-57.283 22.137-14.17 11.912-21.254 28.014-21.254 48.33 0 27.823 16.866 47.853 50.596 60.147l22.295 8.42c12.412 4.007 18.638 10.02 18.638 18.058 0 4.277-2.02 7.681-6.084 10.217-4.056 2.545-9.882 3.809-17.414 3.809-15.934 0-34.706-5.615-56.28-16.826-4.572 4.803-8.565 11.379-11.937 19.656-3.373 8.277-5.208 15.901-5.462 22.851 23.472 13.105 48.957 21.088 76.51 21.088 27.551 0 48.72-7.308 63.558-19.084 14.853-11.768 22.295-27.678 22.295-47.724 0-30.455-17.947-51.98-53.856-64.543l-25.133-8.85c-10.265-3.745-15.386-8.817-15.386-15.234 0-3.746 1.391-6.815 4.222-9.225 2.863-2.417 6.943-3.619 12.358-3.619 15.124 0 34.001 5.082 56.685 15.244 5.146-3.746 9.454-10.092 12.97-19.053 3.49-8.953 4.992-17.174 4.452-24.664-9.176-4.53-20.921-12.777-35.218-16.125-14.312-3.34-27.392-5.01-39.272-5.01zm-370.027.053c-15.387 0-28.817 6.966-40.284 12.317-11.466 5.344-20.913 12.692-28.332 22.05-7.435 9.367-12.97 20.388-16.61 33.087-3.643 12.699-5.464 26.533-5.464 41.498 0 15.49 1.48 29.818 4.453 42.914 2.966 13.08 8.03 24.436 15.18 34.074 7.156 9.62 16.468 17.102 27.941 22.437 11.475 5.344 25.716 9.448 42.717 9.448 31.305 0 57.752-9.064 79.348-24.291-2.14-15.49-7.658-27.808-16.524-36.897-11.03 4.142-20.786 7.108-29.246 8.93-8.468 1.798-15.934 2.705-22.382 2.705-12.906 0-22.193-3.285-27.83-9.916-5.631-6.608-8.72-14.423-9.266-26.295h105.264c3.477-11.243 5.234-26.44 5.234-42.748 0-12.293-1.955-23.657-5.867-34.09-3.904-10.432-9.511-19.377-16.795-26.867-7.292-7.49-16.127-13.367-26.512-17.645-10.4-4.27-22.072-10.71-35.025-10.71zm-.184 48.809c8.835 0 15.468 3.196 19.881 9.613 4.422 6.417 6.629 19.348 6.629 29.239l.01 4.43H344.52v-.003c.802-13.645 3.292-28.243 7.435-34.254 4.15-6.019 10.503-9.025 19.082-9.025z" fill="#45d1fd"/></svg>